<svg width="166" height="133" viewBox="0 0 166 133" fill="none" xmlns="http://www.w3.org/2000/svg">
<g clip-path="url(#clip0_610_177)">
<mask id="mask0_610_177" style="mask-type:luminance" maskUnits="userSpaceOnUse" x="0" y="0" width="166" height="133">
<path d="M166 0H0V133H166V0Z" fill="white"/>
</mask>
<g mask="url(#mask0_610_177)">
<path d="M94.5672 117.662C93.4193 116.065 91.8655 114.896 89.912 114.459C88.2085 114.077 86.457 114.142 84.7254 114.156L62.8306 114.323C60.9555 114.338 59.1576 115.952 59.2447 117.887C59.3311 119.805 60.8206 121.466 62.8306 121.45C69.2443 121.401 75.6579 121.352 82.0715 121.303C83.5836 121.291 85.0965 121.264 86.6086 121.269C86.9482 121.27 87.2864 121.288 87.6256 121.292C87.7078 121.293 87.7671 121.292 87.809 121.29C87.8195 121.293 87.8284 121.296 87.8421 121.3C88.019 121.348 88.2006 121.382 88.3786 121.427C88.3162 121.429 88.494 121.539 88.5833 121.577C88.5956 121.601 88.6218 121.644 88.6654 121.709C88.7264 121.823 88.9068 122.168 88.9143 122.157C89.1854 122.838 89.4091 123.537 89.5837 124.249C90.0004 125.818 90.092 126.147 90.152 127.619C90.2278 129.479 91.7471 131.271 93.7379 131.183C95.6158 131.099 97.4051 129.614 97.3238 127.619C97.1868 124.257 96.593 120.481 94.5672 117.662Z" fill="#E6E6E6"/>
<path d="M64.1176 125.703C63.7064 123.227 63.303 120.749 62.8838 118.274C62.4584 115.763 61.5896 113.463 59.6233 111.815C59.0979 111.375 58.5531 110.964 58.0061 110.554C57.8137 110.41 57.6217 110.266 57.4316 110.119C57.4202 110.11 57.413 110.104 57.4031 110.097C57.3822 110.079 57.3571 110.058 57.3234 110.029C56.5039 109.34 55.712 108.62 54.9577 107.855C54.2879 107.175 53.6473 106.467 53.0359 105.729C52.8832 105.545 52.7324 105.359 52.5835 105.171C52.5579 105.139 52.4201 104.962 52.3292 104.847C52.2447 104.731 52.0903 104.522 52.0644 104.486C51.8905 104.241 51.7197 103.995 51.552 103.746C50.4099 102.045 49.4209 100.248 48.5966 98.3749C48.5148 98.1891 48.435 98.0022 48.3571 97.8143C48.3362 97.7569 48.3092 97.6831 48.2733 97.5851C48.1072 97.1311 47.9414 96.6777 47.7895 96.2183C47.4668 95.2428 47.1893 94.2526 46.9571 93.2482C46.8423 92.7522 46.739 92.2538 46.6471 91.7527C46.5997 91.4951 46.5554 91.2369 46.5142 90.9782C46.5074 90.9352 46.4671 90.656 46.4433 90.4983C46.4258 90.3398 46.3932 90.0592 46.3889 90.0159C46.3626 89.7551 46.3393 89.4941 46.3189 89.2328C46.2731 88.6448 46.2421 88.0557 46.2259 87.4658C46.1983 86.4173 46.2172 85.3691 46.2826 84.3208C46.3198 83.7318 46.3728 83.1442 46.438 82.5578C46.4419 82.5219 46.445 82.4932 46.4479 82.4674C46.4518 82.4412 46.4564 82.4114 46.4619 82.3744C46.5101 82.0503 46.5609 81.7267 46.6177 81.4041C46.8328 80.1793 47.1125 78.9666 47.4557 77.771C47.6182 77.2055 47.7948 76.6446 47.9853 76.0883C48.0702 75.8413 48.1578 75.5952 48.2481 75.3501C48.2422 75.3659 48.5131 74.6786 48.5167 74.6555C49.5913 72.1323 51.349 69.832 51.3515 66.9658C51.3531 65.0252 49.701 63.1663 47.7655 63.256C46.8006 63.2921 45.8874 63.699 45.2185 64.3911C44.5495 65.0831 44.1771 66.0062 44.1796 66.9658C44.1796 67.0094 44.1794 67.0467 44.1793 67.0828C44.1612 67.1432 44.1461 67.1935 44.1326 67.2381C43.923 67.6906 43.6663 68.1207 43.4362 68.5621C42.8063 69.77 42.2687 71.0175 41.758 72.2833C40.9219 74.3446 40.2819 76.4793 39.8464 78.6592C38.8998 83.4356 38.8263 88.3424 39.6295 93.1446C41.0198 101.566 45.6049 109.628 51.9792 115.046C52.5323 115.517 53.099 115.971 53.671 116.416C53.9077 116.6 54.1464 116.781 54.3863 116.961C54.4996 117.046 54.9693 117.414 54.7627 117.236C55.207 117.612 55.394 117.802 55.5082 118.08C55.5247 118.144 55.5472 118.23 55.5778 118.349C55.6582 118.662 55.7346 118.975 55.7981 119.292C56.3529 122.065 56.7385 124.885 57.202 127.676C57.5205 129.593 59.8963 130.842 61.6131 130.267C63.6114 129.598 64.459 127.758 64.1176 125.703Z" fill="#E6E6E6"/>
<path d="M94.9299 132.896C93.4239 132.9 91.9778 132.31 90.909 131.256C89.8401 130.201 89.2357 128.769 89.2283 127.272V123.207C84.9456 123.684 70.2805 123.574 66.0768 122.902V127.11C66.0655 128.605 65.4598 130.035 64.3918 131.089C63.3237 132.142 61.8799 132.733 60.3751 132.733C58.8703 132.733 57.4265 132.142 56.3585 131.089C55.2904 130.035 54.6848 128.605 54.6735 127.11V118.849C48.9799 115.706 44.2334 111.11 40.924 105.535C37.6146 99.9604 35.8621 93.6092 35.8474 87.1368C35.8474 76.0389 40.9087 65.6861 49.7336 58.7331C55.4714 54.197 62.4429 51.469 69.7525 50.8995C70.7447 50.8222 71.7429 50.783 72.7196 50.783C76.1603 50.783 91.6843 51.3112 95.5793 52.4248L104.461 43.6672C104.591 43.5367 104.758 43.4478 104.94 43.4119C105.121 43.3759 105.31 43.3945 105.48 43.4653C105.653 43.5334 105.8 43.6516 105.904 43.8045C106.007 43.9574 106.061 44.1378 106.06 44.322V45.7144L107.789 44.0124C107.919 43.8818 108.086 43.7928 108.267 43.7567C108.449 43.7207 108.637 43.7393 108.808 43.8101C108.98 43.8782 109.128 43.9965 109.232 44.1494C109.335 44.3024 109.39 44.4829 109.388 44.6672V60.2271C113.844 64.2196 117.241 69.2429 119.277 74.8518C121.313 80.4607 121.925 86.4821 121.059 92.3822C120.193 98.2824 117.875 103.879 114.312 108.677C110.749 113.474 106.05 117.324 100.631 119.885V127.272C100.624 128.769 100.02 130.201 98.9508 131.256C97.8819 132.31 96.4359 132.9 94.9299 132.896ZM89.6765 122.702V127.272C89.6878 128.65 90.2463 129.966 91.2303 130.936C92.2142 131.906 93.544 132.45 94.9299 132.45C96.3158 132.45 97.6455 131.906 98.6295 130.936C99.6135 129.966 100.172 128.65 100.183 127.272V119.604L100.311 119.543C106.391 116.676 111.552 112.191 115.222 106.585C119.898 99.4321 121.843 90.8516 120.704 82.3968C119.566 73.9421 115.419 66.1718 109.014 60.4922L108.94 60.4258V44.6672C108.941 44.5714 108.913 44.4775 108.86 44.398C108.806 44.3185 108.729 44.2574 108.639 44.2227C108.55 44.1848 108.451 44.1745 108.356 44.1933C108.26 44.2121 108.173 44.2591 108.105 44.3281L105.611 46.7825V44.322C105.613 44.2263 105.585 44.1323 105.531 44.0529C105.478 43.9734 105.401 43.9122 105.311 43.8776C105.221 43.8397 105.122 43.8295 105.027 43.8485C104.932 43.8674 104.844 43.9145 104.776 43.9837L95.7046 52.9287L95.5757 52.8886C91.9548 51.7624 76.1865 51.2285 72.7196 51.2285C71.7545 51.2285 70.7681 51.2672 69.7877 51.3436C62.5669 51.9062 55.6802 54.601 50.0121 59.0821C41.2951 65.9502 36.2956 76.1757 36.2956 87.1368C36.3105 93.5519 38.0536 99.846 41.3439 105.365C44.6342 110.885 49.3516 115.428 55.0061 118.523L55.1217 118.587V127.11C55.1333 128.487 55.6918 129.804 56.6758 130.773C57.6597 131.743 58.9894 132.287 60.3751 132.287C61.7609 132.287 63.0905 131.743 64.0744 130.773C65.0584 129.804 65.617 128.487 65.6285 127.11V122.369L65.8941 122.419C69.6718 123.125 85.5789 123.236 89.4232 122.735L89.6765 122.702Z" fill="#3F3D56"/>
<path d="M64.546 26.5293L39.727 33.9413C38.9376 34.178 38.275 34.7164 37.8848 35.4382C37.4946 36.1601 37.4087 37.0063 37.646 37.791C37.8833 38.5758 38.4244 39.2348 39.1503 39.6233C39.8763 40.0119 40.7278 40.0982 41.5177 39.8633L63.2371 33.3756L63.6921 33.2397C63.7842 30.9098 64.4203 28.6331 65.5501 26.5894C65.4083 26.526 65.2567 26.4869 65.1018 26.4736C64.9147 26.4556 64.7258 26.4745 64.546 26.5293Z" fill="#FFA763"/>
<path d="M41.0885 41.4435C40.759 41.4427 40.4382 41.339 40.1712 41.1471C39.9043 40.9553 39.7047 40.6849 39.6008 40.3742L38.0488 35.7203C37.984 35.526 37.9584 35.3208 37.9733 35.1166C37.9883 34.9124 38.0436 34.7132 38.1361 34.5302C38.2285 34.3472 38.3564 34.1842 38.5123 34.0503C38.6682 33.9164 38.8491 33.8144 39.0447 33.75L59.2449 27.0975C59.4404 27.0331 59.6468 27.0076 59.8523 27.0224C60.0578 27.0373 60.2583 27.0922 60.4424 27.1841C60.6265 27.2759 60.7906 27.4029 60.9253 27.5578C61.0601 27.7127 61.1628 27.8924 61.2276 28.0868L62.7796 32.7406C62.9087 33.1234 62.8828 33.5411 62.7074 33.9052C62.532 34.2694 62.2208 34.5514 61.8398 34.6915C61.8211 34.6984 61.8023 34.705 61.7833 34.7111L41.5835 41.3635C41.4239 41.4163 41.2568 41.4434 41.0885 41.4435Z" fill="#2F2E41"/>
<path d="M78.9188 18.2643C74.8418 18.2659 70.9254 19.8439 67.9986 22.6643C65.0717 25.4847 63.3641 29.3261 63.2371 33.3756C63.2326 33.5337 63.2304 33.6941 63.2304 33.8544C63.2304 36.9378 64.1505 39.952 65.8744 42.5158C67.5982 45.0796 70.0484 47.0778 72.9151 48.2577C75.7818 49.4377 78.9362 49.7465 81.9794 49.1449C85.0227 48.5434 87.8181 47.0586 90.0122 44.8783C92.2062 42.6979 93.7004 39.9201 94.3057 36.8959C94.9111 33.8717 94.6004 30.7371 93.413 27.8884C92.2255 25.0396 90.2147 22.6048 87.6348 20.8917C85.0549 19.1787 82.0217 18.2643 78.9188 18.2643ZM78.9188 48.999C74.8781 48.9949 71.0042 47.3979 68.147 44.5587C65.2899 41.7194 63.6829 37.8697 63.6786 33.8544C63.6786 33.6473 63.6831 33.4424 63.6921 33.2397C63.8135 30.2731 64.8097 27.4074 66.5569 24.9989C68.304 22.5904 70.7251 20.7454 73.519 19.6933C76.313 18.6412 79.3564 18.4285 82.2711 19.0815C85.1857 19.7345 87.8428 21.2245 89.9121 23.3662C91.9814 25.5079 93.3716 28.2068 93.9097 31.1273C94.4478 34.0478 94.1102 37.0611 92.9388 39.7924C91.7674 42.5237 89.8139 44.8527 87.3212 46.4896C84.8285 48.1265 81.9066 48.9991 78.9188 48.999Z" fill="#3F3D56"/>
<path d="M92.1418 33.8544C92.1418 37.3394 90.7487 40.6817 88.2689 43.1459C85.7891 45.6102 82.4257 46.9946 78.9187 46.9946C75.4118 46.9946 72.0484 45.6102 69.5686 43.1459C67.0888 40.6817 65.6957 37.3394 65.6957 33.8544C65.6957 33.4379 65.7158 33.0281 65.7539 32.6228C66.0726 29.2594 67.6825 26.1472 70.2495 23.9324C72.8165 21.7175 76.1433 20.5703 79.5391 20.7287C82.9349 20.8872 86.1389 22.3393 88.4857 24.7835C90.8325 27.2277 92.1418 30.4762 92.1418 33.8544Z" fill="#E6E6E6"/>
<path d="M82.8565 34.7274C82.536 34.3087 82.1144 33.977 81.6307 33.7631C81.034 33.5132 80.4179 33.3121 79.7883 33.1618V29.5849C80.756 29.7298 81.6636 30.141 82.4083 30.7719L83.139 29.2241C82.7187 28.852 82.2363 28.5559 81.7135 28.3489C81.134 28.1157 80.5258 27.9606 79.9049 27.8878V26.075H78.2128V27.9057C77.5594 27.9786 76.9291 28.1889 76.3638 28.5226C75.8532 28.823 75.4233 29.2416 75.1109 29.743C74.8129 30.2323 74.6584 30.7946 74.665 31.3666C74.6359 31.9864 74.8166 32.5981 75.1782 33.1039C75.5111 33.5418 75.9507 33.8882 76.4556 34.1105C77.0618 34.3678 77.6886 34.5741 78.3294 34.7274V38.1549C77.1875 38.0693 76.0994 37.6379 75.2118 36.9189L74.4813 38.4691C74.9775 38.8768 75.5419 39.1949 76.1487 39.4089C76.8136 39.6454 77.5082 39.7892 78.2128 39.8364V41.6338H79.9049V39.8031C80.8448 39.7011 81.7261 39.2995 82.4173 38.6584C82.7216 38.3683 82.9621 38.0186 83.1233 37.6314C83.2846 37.2442 83.3632 36.8279 83.3541 36.409C83.3822 35.8089 83.207 35.2168 82.8565 34.7274ZM78.3294 32.7831C77.9172 32.6589 77.534 32.4545 77.202 32.1818C77.0705 32.0655 76.9665 31.9216 76.8975 31.7607C76.8286 31.5998 76.7963 31.4257 76.8031 31.2509C76.7909 30.8542 76.9376 30.4689 77.211 30.1796C77.5141 29.8761 77.9052 29.6744 78.3294 29.6028V32.7831ZM80.8507 37.5224C80.5648 37.8138 80.1925 38.0067 79.7883 38.0726V35.1239C80.1747 35.2269 80.536 35.4063 80.8507 35.6516C80.97 35.7529 81.0648 35.8796 81.128 36.0223C81.1913 36.165 81.2214 36.32 81.216 36.4757C81.2316 36.858 81.1011 37.2318 80.8507 37.5224Z" fill="#FFA763"/>
<path d="M41.8088 60.3049C41.4623 60.3043 41.1257 60.1902 40.8512 59.9802C40.5767 59.7701 40.3795 59.476 40.2904 59.1433L39.4454 55.9651C39.3396 55.5656 39.3976 55.1408 39.6067 54.7838C39.8157 54.4267 40.1587 54.1667 40.5604 54.0606L67.2174 47.0607C67.6197 46.9564 68.0471 47.0147 68.4062 47.2228C68.7654 47.4308 69.027 47.7718 69.1338 48.1711L69.8496 50.8637L69.7155 50.874C62.8788 51.4022 56.3375 53.8654 50.8654 57.9722L50.8265 57.9909L42.2068 60.2536C42.0769 60.2876 41.9431 60.3049 41.8088 60.3049Z" fill="#2F2E41"/>
<path d="M37.3939 76.0033C34.2669 75.5442 31.2763 74.4205 28.6258 72.7088C27.3128 71.8614 26.0972 70.8735 25.0009 69.7627C23.9189 68.666 22.8838 67.4194 22.3479 65.9589C21.8322 64.6076 21.8588 63.1111 22.4221 61.7787C22.9777 60.4545 24.0391 59.4032 25.3735 58.8554C26.7159 58.3234 28.3377 58.2665 29.6442 58.8491C30.2667 59.1203 30.8054 59.5512 31.205 60.0976C31.3908 60.3496 31.5283 60.6333 31.6107 60.9346C31.6873 61.2077 31.6942 61.4954 31.631 61.7719C31.5544 62.0478 31.4193 62.3043 31.2348 62.5241C31.0502 62.744 30.8205 62.9221 30.5611 63.0465C29.9901 63.3376 29.3713 63.5251 28.734 63.6002C28.093 63.687 27.1722 63.7661 26.6569 63.2547C26.5508 63.1536 26.4674 63.0313 26.412 62.896C26.3733 62.7924 26.36 62.681 26.3734 62.5713C26.3659 62.6196 26.4045 62.4661 26.4023 62.4722C26.3941 62.4949 26.3588 62.5502 26.409 62.4652C26.4247 62.4372 26.4421 62.4102 26.4612 62.3844C26.4442 62.4062 26.4068 62.4428 26.4736 62.3801C26.5288 62.3201 26.5998 62.2765 26.6785 62.2544C26.7095 62.2454 26.741 62.2383 26.7721 62.2298C26.8512 62.2084 26.6933 62.231 26.7742 62.2284C26.8054 62.2274 26.837 62.2282 26.8681 62.2268C26.9474 62.2233 26.7898 62.2053 26.8658 62.2243C26.8954 62.2317 26.9246 62.2389 26.9537 62.248C27.0169 62.2678 26.9089 62.2019 26.9518 62.2512C27.002 62.309 26.8991 62.195 26.9561 62.2509C26.9845 62.2787 27.0113 62.308 27.0363 62.3388C27.1352 62.4358 27.2687 62.4903 27.4078 62.4903C27.5468 62.4903 27.6803 62.4358 27.7792 62.3388C27.8748 62.2393 27.9282 62.1071 27.9282 61.9696C27.9282 61.8321 27.8748 61.6999 27.7792 61.6005C27.2612 60.9623 26.238 61.12 25.7139 61.6593C25.0456 62.3472 25.3102 63.4373 25.9603 64.0375C26.6963 64.7169 27.7386 64.7642 28.6853 64.6502C29.4853 64.5741 30.265 64.3551 30.9868 64.0039C31.704 63.6537 32.265 63.0515 32.561 62.3139C32.6947 61.9202 32.7427 61.5029 32.7019 61.0894C32.6611 60.676 32.5323 60.2758 32.3242 59.9155C31.4884 58.354 29.7577 57.5534 28.0471 57.4148C27.1663 57.3462 26.2806 57.4519 25.4413 57.7257C24.6019 57.9995 23.8255 58.4361 23.157 59.01C21.8686 60.1627 21.0752 61.7634 20.9409 63.481C20.7916 65.2619 21.4869 66.9913 22.5006 68.4285C23.5618 69.8887 24.8283 71.1902 26.2612 72.2933C29.0626 74.5158 32.3486 76.0559 35.8562 76.7901C36.2734 76.8758 36.6929 76.9491 37.1146 77.0101C37.2488 77.0424 37.3903 77.0227 37.5104 76.9549C37.6304 76.8872 37.72 76.7765 37.7608 76.6455C37.7968 76.512 37.7785 76.3698 37.7099 76.2496C37.6412 76.1294 37.5277 76.0409 37.3939 76.0033Z" fill="#3F3D56"/>
<path d="M87.459 53.314C82.8775 53.2497 78.3105 53.3653 73.7579 53.6606C72.2017 53.7616 70.8553 54.3081 70.8553 55.2268C70.8553 55.9948 72.191 56.8946 73.7579 56.7929C78.3081 56.4976 82.8752 56.3821 87.459 56.4463C91.1959 56.4987 91.1937 53.3664 87.459 53.314Z" fill="#CCCCCC"/>
<path d="M80.6874 56.2911C80.1923 56.2911 68.5613 56.2727 68.5613 54.6762C68.5613 53.0798 80.1923 53.0614 80.6874 53.0614C81.1826 53.0614 92.8136 53.0798 92.8136 54.6762C92.8136 56.2727 81.1826 56.2911 80.6874 56.2911ZM69.0161 54.6762C69.3344 55.1603 73.6097 55.8457 80.6874 55.8457C87.7652 55.8457 92.0405 55.1603 92.3588 54.6762C92.0405 54.1923 87.7652 53.5069 80.6874 53.5069C73.6097 53.5069 69.3344 54.1923 69.0161 54.6762Z" fill="#3F3D56"/>
<path d="M117.59 98.2619C120.164 98.1908 123.369 98.102 125.837 96.31C126.573 95.7545 127.177 95.046 127.607 94.2341C128.038 93.4222 128.284 92.5266 128.33 91.61C128.38 90.1947 127.866 88.9593 126.881 88.1325C125.591 87.0497 123.709 86.7958 121.68 87.3884L123.782 72.1217L122.239 71.9116L119.767 89.8595L121.056 89.2718C122.55 88.5909 124.601 88.2443 125.875 89.3145C126.188 89.5943 126.432 89.9421 126.588 90.3308C126.744 90.7194 126.807 91.1385 126.773 91.5555C126.735 92.2377 126.55 92.9038 126.23 93.5085C125.91 94.1132 125.463 94.6423 124.919 95.0599C122.997 96.4543 120.443 96.6342 117.546 96.7147L117.59 98.2619Z" fill="#3F3D56"/>
<path d="M113.323 73.4382H104.933V74.9861H113.323V73.4382Z" fill="#3F3D56"/>
<path d="M45.6051 67.4243C45.2316 67.4231 44.8708 67.2898 44.5873 67.0483C44.3038 66.8068 44.116 66.4729 44.0577 66.1064L43.5457 62.8588C43.4817 62.4504 43.5834 62.0334 43.8285 61.6994C44.0735 61.3654 44.4419 61.1416 44.8528 61.0772L72.0904 56.8362C72.5014 56.7726 72.9209 56.8737 73.257 57.1172C73.5931 57.3607 73.8183 57.7268 73.8831 58.135L74.3951 61.3827C74.4591 61.7911 74.3574 62.2081 74.1124 62.5421C73.8674 62.8761 73.499 63.0999 73.0881 63.1643L45.8505 67.4052C45.7693 67.4179 45.6873 67.4242 45.6051 67.4243Z" fill="#2F2E41"/>
<path d="M34.3328 29.366C40.6454 29.366 45.7629 24.2806 45.7629 18.0075C45.7629 11.7344 40.6454 6.64905 34.3328 6.64905C28.0201 6.64905 22.9026 11.7344 22.9026 18.0075C22.9026 24.2806 28.0201 29.366 34.3328 29.366Z" fill="#FFA763"/>
<path d="M40.8043 20.9465C41.1696 20.8195 41.5033 20.6163 41.783 20.3505C41.968 20.161 42.1091 19.9335 42.1964 19.6841C42.2837 19.4347 42.3151 19.1694 42.2883 18.9066C42.2728 18.7194 42.2138 18.5382 42.1162 18.3774C42.0185 18.2165 41.8847 18.0802 41.7253 17.9792C41.3116 17.7264 40.765 17.736 40.2132 17.9902L40.1495 13.5564L39.7013 13.5628L39.7762 18.7751L40.1173 18.5528C40.513 18.2953 41.0815 18.1087 41.4904 18.3587C41.5916 18.4248 41.676 18.5133 41.7372 18.6172C41.7983 18.7211 41.8345 18.8376 41.843 18.9577C41.8618 19.1534 41.838 19.3509 41.7732 19.5366C41.7084 19.7224 41.604 19.8921 41.4673 20.0342C40.9814 20.5133 40.2622 20.6738 39.4414 20.8206L39.5208 21.259C39.9572 21.1931 40.3867 21.0886 40.8043 20.9465Z" fill="#2F2E41"/>
<path d="M44.765 13.2452L42.3781 13.6044L42.4452 14.0448L44.8321 13.6856L44.765 13.2452Z" fill="#2F2E41"/>
<path d="M37.2308 14.3788L34.8439 14.738L34.911 15.1784L37.2979 14.8192L37.2308 14.3788Z" fill="#2F2E41"/>
<path d="M41.8863 67.2257C41.4752 67.2248 41.0742 67.0996 40.7365 66.8666C40.3988 66.6337 40.1405 66.3041 39.996 65.9217L32.1152 44.9489C31.152 42.3767 31.2548 39.5298 32.4012 37.0329C33.5476 34.536 35.6439 32.5929 38.2301 31.63L44.6381 29.2522C44.8859 29.1597 45.1496 29.1167 45.4142 29.1258C45.6787 29.1349 45.9389 29.196 46.1796 29.3054C46.4197 29.412 46.6361 29.5651 46.816 29.7558C46.9959 29.9464 47.1358 30.1708 47.2274 30.4158L61.8258 57.8062C61.9206 58.0532 61.9653 58.3164 61.9573 58.5806C61.9494 58.8448 61.8889 59.1048 61.7794 59.3457C61.6699 59.5866 61.5135 59.8037 61.3193 59.9843C61.1251 60.1649 60.8969 60.3056 60.6477 60.3982L42.5912 67.0984C42.3658 67.1824 42.127 67.2255 41.8863 67.2257Z" fill="#2F2E41"/>
<path d="M42.694 29.9736L57.1786 49.2219L47.3775 30.1756C47.2965 29.9534 47.1723 29.7492 47.0119 29.5746C46.8516 29.4001 46.6582 29.2587 46.4428 29.1585C46.2274 29.0583 45.9942 29.0012 45.7567 28.9905C45.5191 28.9798 45.2817 29.0158 45.0581 29.0963L42.694 29.9736Z" fill="#E6E6E6"/>
<path d="M65.6285 44.5915L39.7662 42.936C39.3585 42.9099 38.96 42.8043 38.5935 42.6252C38.2269 42.4461 37.8994 42.1969 37.6297 41.892C37.36 41.5871 37.1534 41.2324 37.0217 40.8482C36.8899 40.4639 36.8356 40.0577 36.8619 39.6526C36.8882 39.2475 36.9945 38.8515 37.1747 38.4872C37.355 38.1229 37.6057 37.7975 37.9125 37.5295C38.2193 37.2615 38.5762 37.0562 38.9629 36.9253C39.3496 36.7944 39.7584 36.7404 40.1661 36.7665L66.0284 38.4218C66.2193 38.434 66.406 38.4835 66.5777 38.5674C66.7493 38.6513 66.9027 38.7679 67.029 38.9107C67.1553 39.0535 67.2521 39.2196 67.3138 39.3996C67.3755 39.5795 67.4009 39.7698 67.3886 39.9595L67.176 43.2399C67.1511 43.623 66.9741 43.9807 66.6839 44.2342C66.3937 44.4876 66.0141 44.6162 65.6285 44.5915Z" fill="#FFA763"/>
<path d="M58.7178 45.6527C58.6836 45.6527 58.6494 45.6516 58.6151 45.6494L37.3783 44.2901C37.1727 44.2769 36.9717 44.2237 36.7868 44.1334C36.6019 44.043 36.4368 43.9174 36.3008 43.7636C36.1647 43.6099 36.0605 43.431 35.9941 43.2372C35.9277 43.0434 35.9003 42.8385 35.9135 42.6342L36.2767 37.0311C36.2899 36.8267 36.3435 36.627 36.4345 36.4433C36.5254 36.2596 36.6518 36.0955 36.8066 35.9603C36.9613 35.8251 37.1414 35.7216 37.3364 35.6556C37.5314 35.5896 37.7376 35.5624 37.9432 35.5756L59.1799 36.9348C59.5949 36.9618 59.9822 37.1513 60.2568 37.4618C60.5314 37.7722 60.6709 38.1782 60.6446 38.5907L60.2815 44.1939C60.2615 44.4942 60.1547 44.7823 59.974 45.0237C59.7933 45.2651 59.5463 45.4496 59.2626 45.5549C59.0884 45.6197 58.9038 45.6528 58.7178 45.6527Z" fill="#2F2E41"/>
<path d="M34.2017 10.4544C35.7054 9.16922 37.7703 10.3189 39.4947 10.1176C41.1445 9.92507 42.4472 8.45448 42.78 6.89217C43.1682 5.06947 42.2162 3.24339 40.813 2.10697C39.2761 0.8623 37.2378 0.504988 35.3063 0.73526C33.0925 0.999177 31.0679 2.02464 29.2512 3.26498C27.4977 4.42513 25.8851 5.78301 24.4457 7.31153C23.1568 8.72615 22.0647 10.4123 21.716 12.3159C21.3991 14.0458 21.6411 15.9629 22.6702 17.4284C23.2159 18.1795 23.9472 18.7782 24.7935 19.1667C25.676 19.5973 26.6173 19.9052 27.4723 20.392C28.7649 21.1282 30.0213 22.6546 29.6163 24.243C29.5295 24.59 29.3582 24.9104 29.1175 25.1762C28.8282 25.4953 28.3064 25.0736 28.5965 24.7537C29.1058 24.1917 29.0858 23.4423 28.8143 22.7714C28.4915 22.0155 27.9199 21.3908 27.1932 20.9999C26.2982 20.4915 25.3102 20.1776 24.393 19.7145C23.5151 19.2914 22.753 18.6638 22.1717 17.8851C21.0739 16.3691 20.7455 14.3961 20.9945 12.5709C21.2639 10.5958 22.2851 8.80097 23.5653 7.29692C24.9584 5.66009 26.6698 4.27454 28.418 3.02983C30.2939 1.69424 32.3664 0.565093 34.6598 0.156698C36.6477 -0.197317 38.8026 0.0206374 40.541 1.09721C42.1637 2.10213 43.408 3.83077 43.5317 5.76236C43.5762 6.64123 43.3841 7.51598 42.9754 8.29661C42.5666 9.07724 41.956 9.73553 41.2062 10.2038C40.4369 10.6613 39.5424 10.8672 38.649 10.7925C37.6939 10.7317 36.7379 10.4411 35.7767 10.5218C35.3417 10.548 34.9272 10.7144 34.596 10.9958C34.2674 11.2766 33.8759 10.7329 34.2017 10.4544Z" fill="#2F2E41"/>
<path d="M165.733 133H0.266817C0.196176 133 0.1285 132.972 0.0786217 132.922C0.0287435 132.872 0.000732422 132.805 0.000732422 132.735C0.000732422 132.665 0.0287435 132.597 0.0786217 132.548C0.1285 132.498 0.196176 132.47 0.266817 132.47H165.733C165.804 132.47 165.872 132.498 165.922 132.547C165.972 132.597 166 132.665 166 132.735C166 132.805 165.972 132.873 165.922 132.922C165.872 132.972 165.804 133 165.733 133Z" fill="#3F3D56"/>
</g>
</g>
<defs>
<clipPath id="clip0_610_177">
<rect width="166" height="133" fill="white"/>
</clipPath>
</defs>
</svg>
